<svg width="20" height="20" viewBox="0 0 20 20" fill="none" xmlns="http://www.w3.org/2000/svg">
<path fill-rule="evenodd" clip-rule="evenodd" d="M13.5938 9.03125C13.5938 11.551 11.551 13.5938 9.03125 13.5938C6.51145 13.5938 4.46875 11.551 4.46875 9.03125C4.46875 6.51145 6.51145 4.46875 9.03125 4.46875C11.551 4.46875 13.5938 6.51145 13.5938 9.03125ZM12.9107 14.3249C11.824 15.1226 10.4826 15.5938 9.03125 15.5938C5.40688 15.5938 2.46875 12.6556 2.46875 9.03125C2.46875 5.40688 5.40688 2.46875 9.03125 2.46875C12.6556 2.46875 15.5938 5.40688 15.5938 9.03125C15.5938 10.4826 15.1226 11.824 14.3249 12.9107L17.2384 15.8241C17.6289 16.2147 17.6289 16.8478 17.2384 17.2384C16.8478 17.6289 16.2147 17.6289 15.8241 17.2384L12.9107 14.3249Z" fill="white"/>
</svg>
