<svg width="34" height="38" viewBox="0 0 34 38" fill="none" xmlns="http://www.w3.org/2000/svg">
<g filter="url(#filter0_d_275_5553)">
<path d="M17.002 29.927C19.0239 29.927 20.663 28.2879 20.663 26.266C20.663 24.2441 19.0239 22.605 17.002 22.605C14.9801 22.605 13.341 24.2441 13.341 26.266C13.341 28.2879 14.9801 29.927 17.002 29.927Z" fill="url(#paint0_radial_275_5553)"/>
<path d="M17.002 29.927C19.0239 29.927 20.663 28.2879 20.663 26.266C20.663 24.2441 19.0239 22.605 17.002 22.605C14.9801 22.605 13.341 24.2441 13.341 26.266C13.341 28.2879 14.9801 29.927 17.002 29.927Z" fill="url(#paint1_linear_275_5553)"/>
<path d="M17.002 29.927C19.0239 29.927 20.663 28.2879 20.663 26.266C20.663 24.2441 19.0239 22.605 17.002 22.605C14.9801 22.605 13.341 24.2441 13.341 26.266C13.341 28.2879 14.9801 29.927 17.002 29.927Z" fill="url(#paint2_radial_275_5553)"/>
<g filter="url(#filter1_i_275_5553)">
<path d="M18.204 3.264C18.204 2.59905 17.665 2.06 17 2.06C16.3351 2.06 15.796 2.59905 15.796 3.264V5.217C15.796 5.88195 16.3351 6.421 17 6.421C17.665 6.421 18.204 5.88195 18.204 5.217V3.264Z" fill="url(#paint3_radial_275_5553)"/>
</g>
<g filter="url(#filter2_iii_275_5553)">
<path d="M8.97801 10.674C9.33759 8.87335 10.3057 7.25117 11.7198 6.07981C13.1339 4.90844 14.9079 4.25919 16.744 4.24103H17.257C19.093 4.25941 20.8668 4.90877 22.2806 6.08012C23.6945 7.25147 24.6625 8.87351 25.022 10.674L26.882 19.99C27.0159 20.66 27.3192 21.2845 27.763 21.804L29.003 23.255C29.6211 23.9795 29.9604 24.9007 29.96 25.853V27.179C29.96 27.3779 29.881 27.5687 29.7403 27.7094C29.5997 27.85 29.4089 27.929 29.21 27.929H4.79001C4.5911 27.929 4.40033 27.85 4.25968 27.7094C4.11903 27.5687 4.04001 27.3779 4.04001 27.179V25.853C4.03958 24.9007 4.37892 23.9795 4.99701 23.255L6.23701 21.805C6.68057 21.2851 6.98354 20.6603 7.11701 19.99L8.97801 10.674Z" fill="url(#paint4_linear_275_5553)"/>
</g>
<path d="M8.97801 10.674C9.33759 8.87335 10.3057 7.25117 11.7198 6.07981C13.1339 4.90844 14.9079 4.25919 16.744 4.24103H17.257C19.093 4.25941 20.8668 4.90877 22.2806 6.08012C23.6945 7.25147 24.6625 8.87351 25.022 10.674L26.882 19.99C27.0159 20.66 27.3192 21.2845 27.763 21.804L29.003 23.255C29.6211 23.9795 29.9604 24.9007 29.96 25.853V27.179C29.96 27.3779 29.881 27.5687 29.7403 27.7094C29.5997 27.85 29.4089 27.929 29.21 27.929H4.79001C4.5911 27.929 4.40033 27.85 4.25968 27.7094C4.11903 27.5687 4.04001 27.3779 4.04001 27.179V25.853C4.03958 24.9007 4.37892 23.9795 4.99701 23.255L6.23701 21.805C6.68057 21.2851 6.98354 20.6603 7.11701 19.99L8.97801 10.674Z" fill="url(#paint5_linear_275_5553)"/>
<path d="M8.97801 10.674C9.33759 8.87335 10.3057 7.25117 11.7198 6.07981C13.1339 4.90844 14.9079 4.25919 16.744 4.24103H17.257C19.093 4.25941 20.8668 4.90877 22.2806 6.08012C23.6945 7.25147 24.6625 8.87351 25.022 10.674L26.882 19.99C27.0159 20.66 27.3192 21.2845 27.763 21.804L29.003 23.255C29.6211 23.9795 29.9604 24.9007 29.96 25.853V27.179C29.96 27.3779 29.881 27.5687 29.7403 27.7094C29.5997 27.85 29.4089 27.929 29.21 27.929H4.79001C4.5911 27.929 4.40033 27.85 4.25968 27.7094C4.11903 27.5687 4.04001 27.3779 4.04001 27.179V25.853C4.03958 24.9007 4.37892 23.9795 4.99701 23.255L6.23701 21.805C6.68057 21.2851 6.98354 20.6603 7.11701 19.99L8.97801 10.674Z" fill="url(#paint6_radial_275_5553)"/>
<g filter="url(#filter3_f_275_5553)">
<path d="M8.47902 21.313L6.91602 23.438H27.916L26.229 21.313H8.47902Z" fill="url(#paint7_linear_275_5553)"/>
</g>
<g filter="url(#filter4_f_275_5553)">
<path d="M17.791 9.326C17.7911 8.7722 17.9942 8.23766 18.3619 7.82351C18.7295 7.40935 19.2362 7.14431 19.7861 7.07853C20.336 7.01275 20.8909 7.1508 21.3459 7.46655C21.8008 7.7823 22.1243 8.25386 22.255 8.792L25.291 21.312H17.791V9.326Z" fill="url(#paint8_linear_275_5553)"/>
</g>
</g>
<defs>
<filter id="filter0_d_275_5553" x="-3" y="0" width="40" height="40" filterUnits="userSpaceOnUse" color-interpolation-filters="sRGB">
<feFlood flood-opacity="0" result="BackgroundImageFix"/>
<feColorMatrix in="SourceAlpha" type="matrix" values="0 0 0 0 0 0 0 0 0 0 0 0 0 0 0 0 0 0 127 0" result="hardAlpha"/>
<feOffset dy="4"/>
<feGaussianBlur stdDeviation="2"/>
<feComposite in2="hardAlpha" operator="out"/>
<feColorMatrix type="matrix" values="0 0 0 0 0 0 0 0 0 0 0 0 0 0 0 0 0 0 0.25 0"/>
<feBlend mode="normal" in2="BackgroundImageFix" result="effect1_dropShadow_275_5553"/>
<feBlend mode="normal" in="SourceGraphic" in2="effect1_dropShadow_275_5553" result="shape"/>
</filter>
<filter id="filter1_i_275_5553" x="15.796" y="2.06" width="2.60799" height="4.36102" filterUnits="userSpaceOnUse" color-interpolation-filters="sRGB">
<feFlood flood-opacity="0" result="BackgroundImageFix"/>
<feBlend mode="normal" in="SourceGraphic" in2="BackgroundImageFix" result="shape"/>
<feColorMatrix in="SourceAlpha" type="matrix" values="0 0 0 0 0 0 0 0 0 0 0 0 0 0 0 0 0 0 127 0" result="hardAlpha"/>
<feOffset dx="0.2"/>
<feGaussianBlur stdDeviation="0.25"/>
<feComposite in2="hardAlpha" operator="arithmetic" k2="-1" k3="1"/>
<feColorMatrix type="matrix" values="0 0 0 0 0.87451 0 0 0 0 0.564706 0 0 0 0 0.341176 0 0 0 1 0"/>
<feBlend mode="normal" in2="shape" result="effect1_innerShadow_275_5553"/>
</filter>
<filter id="filter2_iii_275_5553" x="0.0400085" y="4.24103" width="30.92" height="23.688" filterUnits="userSpaceOnUse" color-interpolation-filters="sRGB">
<feFlood flood-opacity="0" result="BackgroundImageFix"/>
<feBlend mode="normal" in="SourceGraphic" in2="BackgroundImageFix" result="shape"/>
<feColorMatrix in="SourceAlpha" type="matrix" values="0 0 0 0 0 0 0 0 0 0 0 0 0 0 0 0 0 0 127 0" result="hardAlpha"/>
<feOffset dx="-4"/>
<feGaussianBlur stdDeviation="2"/>
<feComposite in2="hardAlpha" operator="arithmetic" k2="-1" k3="1"/>
<feColorMatrix type="matrix" values="0 0 0 0 1 0 0 0 0 0.905882 0 0 0 0 0.392157 0 0 0 1 0"/>
<feBlend mode="normal" in2="shape" result="effect1_innerShadow_275_5553"/>
<feColorMatrix in="SourceAlpha" type="matrix" values="0 0 0 0 0 0 0 0 0 0 0 0 0 0 0 0 0 0 127 0" result="hardAlpha"/>
<feOffset dx="-0.5"/>
<feGaussianBlur stdDeviation="0.5"/>
<feComposite in2="hardAlpha" operator="arithmetic" k2="-1" k3="1"/>
<feColorMatrix type="matrix" values="0 0 0 0 0.996078 0 0 0 0 0.866667 0 0 0 0 0.462745 0 0 0 1 0"/>
<feBlend mode="normal" in2="effect1_innerShadow_275_5553" result="effect2_innerShadow_275_5553"/>
<feColorMatrix in="SourceAlpha" type="matrix" values="0 0 0 0 0 0 0 0 0 0 0 0 0 0 0 0 0 0 127 0" result="hardAlpha"/>
<feOffset dx="1"/>
<feGaussianBlur stdDeviation="1"/>
<feComposite in2="hardAlpha" operator="arithmetic" k2="-1" k3="1"/>
<feColorMatrix type="matrix" values="0 0 0 0 0.917647 0 0 0 0 0.572549 0 0 0 0 0.32549 0 0 0 1 0"/>
<feBlend mode="normal" in2="effect2_innerShadow_275_5553" result="effect3_innerShadow_275_5553"/>
</filter>
<filter id="filter3_f_275_5553" x="4.91602" y="19.313" width="25" height="6.125" filterUnits="userSpaceOnUse" color-interpolation-filters="sRGB">
<feFlood flood-opacity="0" result="BackgroundImageFix"/>
<feBlend mode="normal" in="SourceGraphic" in2="BackgroundImageFix" result="shape"/>
<feGaussianBlur stdDeviation="1" result="effect1_foregroundBlur_275_5553"/>
</filter>
<filter id="filter4_f_275_5553" x="15.791" y="5.0625" width="11.5" height="18.2495" filterUnits="userSpaceOnUse" color-interpolation-filters="sRGB">
<feFlood flood-opacity="0" result="BackgroundImageFix"/>
<feBlend mode="normal" in="SourceGraphic" in2="BackgroundImageFix" result="shape"/>
<feGaussianBlur stdDeviation="1" result="effect1_foregroundBlur_275_5553"/>
</filter>
<radialGradient id="paint0_radial_275_5553" cx="0" cy="0" r="1" gradientUnits="userSpaceOnUse" gradientTransform="translate(18.759 29.5629) rotate(-126.512) scale(2.95496 4.08094)">
<stop stop-color="#FFC26D"/>
<stop offset="1" stop-color="#F68D61"/>
</radialGradient>
<linearGradient id="paint1_linear_275_5553" x1="16.26" y1="27.156" x2="16.51" y2="28.938" gradientUnits="userSpaceOnUse">
<stop offset="0.186" stop-color="#E57356"/>
<stop offset="1" stop-color="#E57356" stop-opacity="0"/>
</linearGradient>
<radialGradient id="paint2_radial_275_5553" cx="0" cy="0" r="1" gradientUnits="userSpaceOnUse" gradientTransform="translate(17.885 26.718) rotate(135) scale(4.06586 6.70906)">
<stop offset="0.441" stop-color="#EA8059" stop-opacity="0"/>
<stop offset="1" stop-color="#C27068"/>
</radialGradient>
<radialGradient id="paint3_radial_275_5553" cx="0" cy="0" r="1" gradientUnits="userSpaceOnUse" gradientTransform="translate(17.791 4.24) rotate(-90) scale(2.18066 1.3125)">
<stop stop-color="#FFE957"/>
<stop offset="1" stop-color="#F7A630"/>
</radialGradient>
<linearGradient id="paint4_linear_275_5553" x1="19.467" y1="26.093" x2="5.94601" y2="26.093" gradientUnits="userSpaceOnUse">
<stop stop-color="#FCB949"/>
<stop offset="1" stop-color="#E28C37"/>
</linearGradient>
<linearGradient id="paint5_linear_275_5553" x1="19.104" y1="28.188" x2="19.104" y2="25.188" gradientUnits="userSpaceOnUse">
<stop stop-color="#D7737D"/>
<stop offset="0.302" stop-color="#FCA162" stop-opacity="0"/>
</linearGradient>
<radialGradient id="paint6_radial_275_5553" cx="0" cy="0" r="1" gradientUnits="userSpaceOnUse" gradientTransform="translate(23.041 14.625) rotate(146.139) scale(22.883 21.9517)">
<stop offset="0.67" stop-color="#E69136" stop-opacity="0"/>
<stop offset="0.977" stop-color="#CF7D44"/>
</radialGradient>
<linearGradient id="paint7_linear_275_5553" x1="7.22902" y1="23.438" x2="27.291" y2="23.438" gradientUnits="userSpaceOnUse">
<stop offset="0.277" stop-color="#F5A43C"/>
<stop offset="1" stop-color="#FFE154"/>
</linearGradient>
<linearGradient id="paint8_linear_275_5553" x1="26.174" y1="18.572" x2="16.541" y2="18.572" gradientUnits="userSpaceOnUse">
<stop offset="0.118" stop-color="#FFEF6D"/>
<stop offset="1" stop-color="#FFEF6D" stop-opacity="0"/>
</linearGradient>
</defs>
</svg>
